<?xml version="1.0" encoding="utf-8"?>
<!-- Generator: Adobe Illustrator 26.0.1, SVG Export Plug-In . SVG Version: 6.00 Build 0)  -->
<svg version="1.1" xmlns="http://www.w3.org/2000/svg" xmlns:xlink="http://www.w3.org/1999/xlink" x="0px" y="0px"
	 viewBox="0 0 601 821.83" style="enable-background:new 0 0 601 821.83;" xml:space="preserve">
<style type="text/css">
	.st0{fill:#FFFFFF;}
	.st1{fill:#FFFFFF;stroke:#19273C;stroke-linejoin:round;stroke-miterlimit:10;}
	.st2{fill:none;stroke:#19273C;stroke-linecap:round;stroke-linejoin:round;}
	.st3{fill:#19273C;}
	.st4{fill:#C8DAF4;stroke:#C8DAF4;stroke-linejoin:round;stroke-miterlimit:10;}
	.st5{fill:#CEF3D1;stroke:#CEF3D1;stroke-linejoin:round;stroke-miterlimit:10;}
	.st6{fill:#F7E7E2;stroke:#F7E7E2;stroke-linejoin:round;stroke-miterlimit:10;}
	.st7{fill:#FBEAAE;stroke:#FBEAAE;stroke-linejoin:round;stroke-miterlimit:10;}
	.st8{fill:#E2D2F4;stroke:#E2D2F4;stroke-linejoin:round;stroke-miterlimit:10;}
	.st9{fill:#E2D5D5;stroke:#E2D5D5;stroke-linejoin:round;stroke-miterlimit:10;}
	.st10{fill:none;stroke:#19273C;stroke-linejoin:round;stroke-miterlimit:10;}
	.st11{font-family:'IBM Plex Sans';}
	.st12{font-size:14px;}
	.st13{font-size:12px;}
	.st14{font-family:'IBM Plex Sans SemiBold';}
</style>
<g id="Base_Area">
	<rect class="st0" width="601" height="821.83"/>
</g>
<g id="Artwork">
	<rect x="96" y="13.67" class="st1" width="342.2" height="796.67"/>
	<g>
		<g>
			<line class="st2" x1="80.89" y1="63.14" x2="106.05" y2="63.21"/>
			<g>
				<polygon class="st3" points="105.02,66.7 111.08,63.23 105.04,59.72 				"/>
			</g>
		</g>
	</g>
	<g>
		<g>
			<line class="st2" x1="81.57" y1="216.91" x2="106.73" y2="216.98"/>
			<g>
				<polygon class="st3" points="105.7,220.47 111.76,216.99 105.72,213.49 				"/>
			</g>
		</g>
	</g>
	<g>
		<g>
			<line class="st2" x1="110.53" y1="231.11" x2="85.37" y2="231.04"/>
			<g>
				<polygon class="st3" points="86.4,227.56 80.35,231.03 86.38,234.54 				"/>
			</g>
		</g>
	</g>
	<g>
		<g>
			<line class="st2" x1="110.96" y1="800.39" x2="85.8" y2="800.32"/>
			<g>
				<polygon class="st3" points="86.83,796.83 80.78,800.31 86.81,803.81 				"/>
			</g>
		</g>
	</g>
	<rect x="122.84" y="22.9" class="st4" width="304.34" height="40.31"/>
	<rect x="122.84" y="120.18" class="st4" width="304.34" height="40.31"/>
	<rect x="122.84" y="168.83" class="st4" width="304.34" height="40.31"/>
	<rect x="122.85" y="761.34" class="st4" width="304.34" height="40.31"/>
	<rect x="448.76" y="714.57" class="st4" width="13.04" height="13.04"/>
	<rect x="448.76" y="733.07" class="st5" width="13.04" height="13.04"/>
	<rect x="449.01" y="751.57" class="st6" width="13.04" height="13.04"/>
	<rect x="449.01" y="770.07" class="st7" width="13.04" height="13.04"/>
	<rect x="449.26" y="788.57" class="st8" width="13.04" height="13.04"/>
	<rect x="122.84" y="217.47" class="st9" width="304.34" height="40.31"/>
	<rect x="122.84" y="420.84" class="st6" width="304.34" height="40.31"/>
	<rect x="122.84" y="274.91" class="st7" width="304.34" height="40.31"/>
	<rect x="122.84" y="323.56" class="st7" width="304.34" height="40.31"/>
	<rect x="122.85" y="518.13" class="st7" width="304.34" height="40.31"/>
	<rect x="122.85" y="469.48" class="st7" width="304.34" height="40.31"/>
	<rect x="122.85" y="664.06" class="st7" width="304.34" height="40.31"/>
	<rect x="122.85" y="615.41" class="st7" width="304.34" height="40.31"/>
	<rect x="122.85" y="712.7" class="st8" width="304.34" height="40.31"/>
	<rect x="122.85" y="372.2" class="st5" width="304.34" height="40.31"/>
	<rect x="122.84" y="566.77" class="st5" width="304.34" height="40.31"/>
	<rect x="122.84" y="71.54" class="st5" width="304.34" height="40.31"/>
	<line class="st10" x1="95.44" y1="266.41" x2="438.2" y2="267.01"/>
</g>
<g id="Text">
	<text transform="matrix(-2.100000e-04 -1 1 -2.100000e-04 113.0031 593.1353)" class="st11 st12">All Conversations </text>
	<text transform="matrix(-2.100000e-04 -1 1 -2.100000e-04 113.0021 207.6391)" class="st11 st12">Primary Conversation </text>
	<text transform="matrix(1 0 0 1 174.8191 46.68)" class="st3 st11 st13">Step 1: Receive a connection request </text>
	<text transform="matrix(1 0 0 1 181.3654 143.9657)" class="st3 st11 st13">Step 3: Read data from connection </text>
	<text transform="matrix(1 0 0 1 183.1964 192.6086)" class="st3 st11 st13">Step 4: Look up channel definition </text>
	<text transform="matrix(1 0 0 1 6.1736 220.4085)"><tspan x="0" y="0" class="st3 st11 st13">Security exit </tspan><tspan x="7.53" y="13.43" class="st3 st11 st13">exchange </tspan></text>
	<text transform="matrix(1 0 0 1 190.1046 785.1229)" class="st3 st11 st13">Step 16: Connection completes </text>
	<text transform="matrix(1 0 0 1 467.8011 725.0546)" class="st3 st11 st13">Channel processing </text>
	<text transform="matrix(1 0 0 1 447.7204 707.1344)" class="st3 st14 st13">Key to steps </text>
	<text transform="matrix(1 0 0 1 467.8011 743.5546)" class="st3 st11 st13">CHLAUTH processing </text>
	<text transform="matrix(1 0 0 1 468.0511 762.0546)" class="st3 st11 st13">Channel exit </text>
	<text transform="matrix(1 0 0 1 468.0511 780.5546)" class="st3 st11 st13">CONNAUTH processing </text>
	<text transform="matrix(1 0 0 1 468.3011 799.0537)" class="st3 st11 st13">Object authorization </text>
	<text transform="matrix(1 0 0 1 178.9836 234.5403)"><tspan x="0" y="0" class="st3 st11 st13">Step 5: Call security exit (if defined) </tspan><tspan x="3.06" y="13.43" class="st3 st11 st13">with exit reason: MQXR_INIT_SEC </tspan></text>
	<text transform="matrix(1 0 0 1 178.9836 437.9107)"><tspan x="0" y="0" class="st3 st11 st13">Step 9: Call security exit (if defined) </tspan><tspan x="-4.15" y="13.43" class="st3 st11 st13">with exit reason: MQXR_SEC_PARMS </tspan></text>
	<text transform="matrix(1 0 0 1 156.5034 291.9821)"><tspan x="0" y="0" class="st3 st11 st13">Step 6: Receive MQCSP (or construct one as </tspan><tspan x="-18.8" y="13.43" class="st3 st11 st13">long as both user+password are supplied by client) </tspan></text>
	<text transform="matrix(1 0 0 1 203.1533 340.625)"><tspan x="0" y="0" class="st3 st11 st13">Step 7: Adopt MQCSP user </tspan><tspan x="-64.27" y="13.43" class="st3 st11 st13">(if ChlauthEarlyAdopt=Y or E and ADOPTCTX=YES) </tspan></text>
	<text transform="matrix(1 0 0 1 189.3304 535.1964)"><tspan x="0" y="0" class="st3 st11 st13">Step 11: Adopt the MQCSP user </tspan><tspan x="-39.23" y="13.43" class="st3 st11 st13">(if ChlauthEarlyAdopt=N and ADOPTCTX=YES) </tspan></text>
	<text transform="matrix(1 0 0 1 192.2875 493.2664)" class="st3 st11 st13">Step 10: Authenticate the user </text>
	<text transform="matrix(1 0 0 1 163.5972 681.1249)"><tspan x="0" y="0" class="st3 st11 st13">Step 14: Validate CONNAUTH CHCKCLNT </tspan><tspan x="74.66" y="13.43" class="st3 st11 st13">requirements </tspan></text>
	<text transform="matrix(1 0 0 1 131.317 639.1949)" class="st3 st11 st13">Step 13: Validate CHLAUTH CHCKCLNT requirements </text>
	<text transform="matrix(1 0 0 1 178.7047 736.4806)" class="st3 st11 st13">Step 15: Check object authorization </text>
	<text transform="matrix(1 0 0 1 153.2859 88.6106)"><tspan x="0" y="0" class="st3 st11 st13">Step 2: Check address is allowed to connect? </tspan><tspan x="81.44" y="13.43" class="st3 st11 st13">(BLOCKADDR)  </tspan></text>
	<text transform="matrix(1 0 0 1 202.5928 389.285)"><tspan x="0" y="0" class="st3 st11 st13">Step 8: CHLAUTH mapping </tspan><tspan x="-73.25" y="13.43" class="st3 st11 st13">(SSLPEERMAP, QMGRMAP, USERMAP, ADDRESSMAP) </tspan></text>
	<text transform="matrix(1 0 0 1 181.6263 583.8564)"><tspan x="0" y="0" class="st3 st11 st13">Step 12: Check user is not blocked </tspan><tspan x="55.36" y="13.43" class="st3 st11 st13">(BLOCKUSER) </tspan></text>
</g>
</svg>
